# xmcd
#
# Track frame offsets:
#	150
#	13447
#	19375
#	29335
#	42460
#	55982
#	66572
#	78110
#	90582
#	100345
#	112777
#	124557
#	136045
#	146545
#	158082
#	166500
#	179797
#
# Disc length: 2553
#
# Revision: 1
# Processed by: cddbd v1.5.1PL0 Copyright (c) Steve Scherf et al.
# Submitted via: CDex 1.51
# Normalized: r0:TDELIM( - )
#
DISCID=e009f711
DTITLE=Various Artist - United Colors Of Music
DYEAR=1996
DGENRE=Country
TTITLE0=Kenny Rodgers and The First Edition - Ruby Don't Take Your Love In Town
TTITLE1=Jim Reeves - Have I Told You Lately That I Love You
TTITLE2=Freddy Fender - Before The Next Teardrop Falls
TTITLE3=Lynn Anderson - Rose Garden
TTITLE4=Tammy Wynette - Till I Can Make My Own
TTITLE5=Dolly Parton - It Wasn't God Who Made Honky Tonk Angels
TTITLE6=Roger Miller - Little Green Apples
TTITLE7=Claude King - Wolverton Mountain
TTITLE8=Ned Miller - From A Jack To A King
TTITLE9=Johnny Paycheck - Take This Job And Shove It
TTITLE10=Skeeter Davis - End Of The World
TTITLE11=Patsy Cline - I've Loved And Lost Again
TTITLE12=Johnny Russell - Act Naturally
TTITLE13=Willie Nelson - Is There Something On Your Mind
TTITLE14=Waylon Jennings - Abilene
TTITLE15=Frankie Laine - High Noon
TTITLE16=Don Gibson - I Can't Stop Loving You
EXTD=YEAR: 1996
EXTT0=
EXTT1=
EXTT2=
EXTT3=
EXTT4=
EXTT5=
EXTT6=
EXTT7=
EXTT8=
EXTT9=
EXTT10=
EXTT11=
EXTT12=
EXTT13=
EXTT14=
EXTT15=
EXTT16=
PLAYORDER=
